PathFileType	4	(X/Y/Z)	c:/Users/goper/Files/vsCode/490R/osim_files/A03/A03_Slow_01.trc
DataRate	CameraRate	NumFrames	NumMarkers	Units                	OrigDataRate	OrigDataStartFrame	OrigNumFrames
250.00	250.00	6	36	mm	250.0	2125	2832
                Frame#	Time	LPSIS			LASIS			LTH1			LTH2			LTH3			LTH4			LLFE			LMFE			LSH1			LSH2			LSH3			LSH4			LLMAL			LMMAL			LCAL			LMTP5			LTOE			LMTP1			RPSIS			RASIS			RTH1			RTH2			RTH3			RTH4			RLFE			RMFE			RSH1			RSH2			RSH3			RSH4			RLMAL			RMMAL			RCAL			RMTP1			RTOE			RMTP5		
		X1	Y1	Z1	X2	Y2	Z2	X3	Y3	Z3	X4	Y4	Z4	X5	Y5	Z5	X6	Y6	Z6	X7	Y7	Z7	X8	Y8	Z8	X9	Y9	Z9	X10	Y10	Z10	X11	Y11	Z11	X12	Y12	Z12	X13	Y13	Z13	X14	Y14	Z14	X15	Y15	Z15	X16	Y16	Z16	X17	Y17	Z17	X18	Y18	Z18	X19	Y19	Z19	X20	Y20	Z20	X21	Y21	Z21	X22	Y22	Z22	X23	Y23	Z23	X24	Y24	Z24	X25	Y25	Z25	X26	Y26	Z26	X27	Y27	Z27	X28	Y28	Z28	X29	Y29	Z29	X30	Y30	Z30	X31	Y31	Z31	X32	Y32	Z32	X33	Y33	Z33	X34	Y34	Z34	X35	Y35	Z35	X36	Y36	Z36

2125	8.49600	-2432.41772	1070.61597	296.20923	0.00000	0.00000	0.00000	-2685.98657	633.99872	454.82474	-2704.45703	595.45471	451.80286	-2740.64551	652.57812	431.17120	-2749.78076	609.79993	430.89142	-2699.73267	551.82751	443.54861	-2717.40234	548.89178	287.63773	0.00000	0.00000	0.00000	-2677.34839	413.44235	440.88947	0.00000	0.00000	0.00000	0.00000	0.00000	0.00000	-2723.93848	95.86282	406.86942	-2730.63257	105.29710	309.92636	-2653.01123	79.34656	356.32422	-2876.71143	49.72927	411.08777	0.00000	0.00000	0.00000	0.00000	0.00000	0.00000	-2432.30664	1076.79651	213.40773	0.00000	0.00000	0.00000	0.00000	0.00000	0.00000	0.00000	0.00000	0.00000	-2637.93579	599.94019	42.31317	0.00000	0.00000	0.00000	0.00000	0.00000	0.00000	0.00000	0.00000	0.00000	-2520.35791	511.20908	56.78946	0.00000	0.00000	0.00000	0.00000	0.00000	0.00000	0.00000	0.00000	0.00000	-2288.76001	243.93837	94.19061	0.00000	0.00000	0.00000	-2228.72144	274.55090	142.79970	-2310.60474	85.82913	217.88536	-2344.10229	69.74622	173.66075	-2297.02637	68.22845	104.67581
2126	8.50000	-2435.54272	1071.49927	296.88431	0.00000	0.00000	0.00000	-2688.78149	634.22754	454.87561	-2707.06152	595.56195	451.88568	-2743.58081	652.53113	431.35196	-2752.45605	609.63635	431.07986	-2702.31470	552.04663	443.59335	-2719.94214	549.04993	287.64990	0.00000	0.00000	0.00000	-2679.21606	413.79102	440.88016	0.00000	0.00000	0.00000	0.00000	0.00000	0.00000	-2724.07666	95.92479	406.81369	-2730.75220	105.32670	309.91891	-2653.02881	79.50848	356.32666	-2876.79443	49.56008	411.04138	0.00000	0.00000	0.00000	0.00000	0.00000	0.00000	-2435.20801	1077.75232	213.60338	0.00000	0.00000	0.00000	0.00000	0.00000	0.00000	0.00000	0.00000	0.00000	-2647.55542	601.32416	42.96128	0.00000	0.00000	0.00000	0.00000	0.00000	0.00000	0.00000	0.00000	0.00000	-2528.35352	512.68060	56.56059	0.00000	0.00000	0.00000	0.00000	0.00000	0.00000	0.00000	0.00000	0.00000	-2296.54321	247.22528	93.40630	0.00000	0.00000	0.00000	-2238.43604	279.44751	140.74269	-2314.51538	88.52693	216.86505	-2347.93799	70.92848	172.87019	-2301.23389	70.25466	103.68645
2127	8.50400	-2440.52734	1071.95068	297.22372	0.00000	0.00000	0.00000	-2691.56323	634.42902	454.86014	-2709.59326	595.68085	451.89575	-2746.53027	652.46875	431.49506	-2755.11646	609.50745	431.21796	-2704.76489	552.27155	443.61218	-2722.44727	549.21118	287.70050	0.00000	0.00000	0.00000	-2681.03662	414.06042	440.95572	0.00000	0.00000	0.00000	0.00000	0.00000	0.00000	-2724.19971	96.00188	406.73773	-2730.92480	105.40540	309.90088	-2653.12769	79.61508	356.27435	-2876.87231	49.44014	411.00018	0.00000	0.00000	0.00000	0.00000	0.00000	0.00000	-2440.09766	1077.85083	214.62675	0.00000	0.00000	0.00000	0.00000	0.00000	0.00000	0.00000	0.00000	0.00000	-2655.53638	602.71136	43.37542	0.00000	0.00000	0.00000	0.00000	0.00000	0.00000	0.00000	0.00000	0.00000	-2538.33057	513.95410	56.08146	0.00000	0.00000	0.00000	0.00000	0.00000	0.00000	0.00000	0.00000	0.00000	-2304.52319	250.47231	92.56290	0.00000	0.00000	0.00000	-2247.57373	283.89615	139.13469	-2318.58057	90.98598	215.88638	-2352.01221	72.03244	172.19563	-2305.97412	72.47455	102.71547
2128	8.50800	-2443.32812	1072.89343	298.00452	0.00000	0.00000	0.00000	-2694.30396	634.65881	454.88120	-2712.18970	595.87970	451.94406	-2749.95020	652.64313	431.86813	-2757.83569	609.44836	431.34418	-2707.21631	552.46057	443.62363	-2724.80029	549.31537	287.71680	0.00000	0.00000	0.00000	-2682.82959	414.45206	440.91751	0.00000	0.00000	0.00000	0.00000	0.00000	0.00000	-2724.30713	96.09663	406.68158	-2731.01733	105.43112	309.87332	-2653.21973	79.72549	356.25690	-2876.93994	49.34377	410.97705	0.00000	0.00000	0.00000	0.00000	0.00000	0.00000	-2444.59424	1078.45203	215.06856	0.00000	0.00000	0.00000	0.00000	0.00000	0.00000	0.00000	0.00000	0.00000	-2664.33569	604.13287	44.07927	0.00000	0.00000	0.00000	0.00000	0.00000	0.00000	0.00000	0.00000	0.00000	-2547.27563	515.21472	56.02870	0.00000	0.00000	0.00000	0.00000	0.00000	0.00000	0.00000	0.00000	0.00000	-2312.77197	253.58673	91.70702	0.00000	0.00000	0.00000	-2256.00537	288.19495	137.19084	-2322.93896	93.22338	214.86632	-2356.35620	73.07105	171.67442	-2311.81885	74.99734	101.68108
2129	8.51200	-2447.39990	1073.56055	298.62863	0.00000	0.00000	0.00000	-2697.12793	634.94849	454.90237	-2714.77856	596.04126	451.97223	-2752.77563	652.63458	431.87344	-2761.16626	609.71796	431.73492	-2709.59351	552.66156	443.61880	-2727.16992	549.48657	287.71649	0.00000	0.00000	0.00000	-2684.57983	414.74118	440.90408	0.00000	0.00000	0.00000	0.00000	0.00000	0.00000	-2724.42993	96.17570	406.60782	-2731.15747	105.47982	309.84402	-2653.31201	79.84169	356.25793	-2876.52246	48.93820	411.16754	0.00000	0.00000	0.00000	0.00000	0.00000	0.00000	-2447.37280	1079.50391	215.15916	0.00000	0.00000	0.00000	0.00000	0.00000	0.00000	0.00000	0.00000	0.00000	-2673.08203	605.57275	44.86632	0.00000	0.00000	0.00000	0.00000	0.00000	0.00000	0.00000	0.00000	0.00000	-2557.17163	516.48218	55.71788	0.00000	0.00000	0.00000	0.00000	0.00000	0.00000	0.00000	0.00000	0.00000	-2321.17676	256.39545	90.90611	0.00000	0.00000	0.00000	-2263.18384	291.30576	136.64978	-2328.03809	95.48317	213.63542	-2361.23633	74.26144	170.98125	-2317.27881	77.01896	100.87862
2130	8.51600	-2452.88208	1074.00049	298.96826	0.00000	0.00000	0.00000	-2699.15430	634.46991	455.10809	-2717.23511	596.14716	451.96976	-2755.56421	652.60736	431.84982	-2763.74170	609.62231	431.71017	-2711.94165	552.87769	443.61829	-2729.43701	549.60809	287.71744	0.00000	0.00000	0.00000	-2686.32202	415.07785	440.91623	0.00000	0.00000	0.00000	0.00000	0.00000	0.00000	-2724.55396	96.24756	406.58325	-2731.29736	105.52213	309.84451	-2653.38794	79.98590	356.26031	-2877.09814	49.05475	410.91037	0.00000	0.00000	0.00000	0.00000	0.00000	0.00000	-2451.35425	1080.14319	215.60187	0.00000	0.00000	0.00000	0.00000	0.00000	0.00000	0.00000	0.00000	0.00000	-2681.89941	607.03650	45.74226	0.00000	0.00000	0.00000	0.00000	0.00000	0.00000	0.00000	0.00000	0.00000	-2566.32349	517.78070	55.60711	0.00000	0.00000	0.00000	0.00000	0.00000	0.00000	0.00000	0.00000	0.00000	-2329.39575	259.05072	90.17381	0.00000	0.00000	0.00000	-2271.51343	294.06808	135.05904	-2333.14185	97.45996	213.04884	-2366.98267	76.14417	170.33441	-2324.41504	79.73595	99.77508
